<!DOCTYPE svg PUBLIC "-//W3C//DTD SVG 1.1//EN" "http://www.w3.org/Graphics/SVG/1.1/DTD/svg11.dtd">
<!-- Uploaded to: SVG Repo, www.svgrepo.com, Transformed by: SVG Repo Mixer Tools -->
<svg width="800px" height="800px" viewBox="-2.4 -2.4 28.80 28.80" xmlns="http://www.w3.org/2000/svg" fill="#0000FF" transform="matrix(1, 0, 0, 1, 0, 0)rotate(0)">
<g id="SVGRepo_bgCarrier" stroke-width="0">
<path transform="translate(-2.4, -2.4), scale(1.7999999999999998)" fill="#8ec6f0" d="M9.166.33a2.25 2.25 0 00-2.332 0l-5.25 3.182A2.25 2.25 0 00.5 5.436v5.128a2.25 2.25 0 001.084 1.924l5.25 3.182a2.25 2.25 0 002.332 0l5.25-3.182a2.25 2.25 0 001.084-1.924V5.436a2.25 2.25 0 00-1.084-1.924L9.166.33z" strokewidth="0"/>
</g>
<g id="SVGRepo_tracerCarrier" stroke-linecap="round" stroke-linejoin="round"/>
<g id="SVGRepo_iconCarrier">
<defs>
<style>.a,.b{fill:none;stroke:#0000FF;stroke-linecap:round;stroke-width:1.5px;}.a{stroke-linejoin:round;}.b{stroke-linejoin:bevel;}</style>
</defs>
<path class="a" d="M3,21.016l.78984-2.87249C5.0964,13.3918,8.5482,11.016,12,11.016"/>
<circle class="b" cx="12" cy="5.98404" r="5"/>
<circle class="a" cx="17" cy="18" r="5"/>
<polyline class="a" points="14.872 18.149 16.32 20.082 19.533 16.572"/>
</g>
</svg>